<?xml version="1.0" encoding="UTF-8"?>
<svg width="122px" height="36px" viewBox="0 0 122 36" version="1.1" xmlns="http://www.w3.org/2000/svg" xmlns:xlink="http://www.w3.org/1999/xlink">
    <!-- Generator: Sketch 46.2 (44496) - http://www.bohemiancoding.com/sketch -->
    <title>logo</title>
    <desc>Created with Sketch.</desc>
    <defs></defs>
    <g id="Symbols" stroke="none" stroke-width="1" fill="none" fill-rule="evenodd">
        <g id="logo" fill="#FFFFFF">
            <path d="M34.9996358,12.3986108 C38.060748,21.8196742 32.9049995,31.9385228 23.4839417,34.9996368 C14.0626704,38.0607509 3.9438278,32.9049993 0.882715577,23.4837224 C-2.17839665,14.0626591 2.97735189,3.94381045 12.3986232,0.882696406 C21.8196809,-2.17841764 31.9385235,2.97754755 34.9996358,12.3986108 Z M18.3259057,32.2695056 C19.220574,31.7241056 25.0390952,27.9466828 25.1164043,21.9257216 C25.1803697,16.9467278 22.7562507,14.3645341 22.1788677,13.8208253 C22.111937,13.7578295 22.0075167,13.7610005 21.9429159,13.8267444 L21.7186134,14.0548399 C21.662273,14.1119167 21.6535889,14.1994343 21.6978564,14.2662353 C21.8124434,14.4391566 22.0140827,14.8044477 22.0452181,15.270363 C22.0899092,15.9417545 21.4830851,16.7010865 20.7496012,16.6108207 C19.6147449,16.4710884 18.8742713,15.3382209 19.5539566,11.2067109 C20.1088882,7.83241896 17.6710017,4.20656658 17.2855149,3.65905272 C17.253744,3.61402552 17.2026988,3.58823529 17.1476292,3.58823529 L16.8119168,3.58823529 C16.7087673,3.58823529 16.6293401,3.67850109 16.6439547,3.77997084 C16.7216875,4.32114284 16.9038406,5.90322535 16.5986282,7.19611907 C15.5044387,11.8341322 9.86764706,14.6425189 9.86764706,21.4101284 C9.86764706,26.4007489 13.221806,29.3161017 13.9042448,29.8576964 C13.9720227,29.9113909 14.0690298,29.9044148 14.1296063,29.8428988 L14.3500963,29.6188197 C14.4123672,29.5551898 14.4157561,29.4554112 14.3564505,29.389033 C13.8953489,28.8732285 12.0905505,26.6895149 12.0672518,24.0855475 C12.0346337,20.4040981 14.3424713,18.0092006 14.3424713,18.0092006 L14.7806978,18.4543992 C14.7806978,18.4543992 13.1644066,22.6884359 17.2143481,23.7919194 C18.9892819,24.2755919 20.5538925,22.8903184 20.5593994,22.8850335 C20.9370494,23.8475163 21.1857096,25.1695826 21.0874316,26.2777168 C20.8290284,29.1833454 18.5167429,31.2791185 17.9154258,31.7784342 C17.8393875,31.8416414 17.8347277,31.9553721 17.9039883,32.0259782 L18.1177005,32.2430811 C18.1729818,32.2993123 18.2585514,32.3105162 18.3259057,32.2695056 Z" id="Combined-Shape"></path>
            <path d="M46.6132706,14.5824948 L46.6132706,13.0381307 L62.6149681,13.0381307 L62.6149681,10.9789785 L46.6132706,10.9789785 L46.6132706,9.4346144 L64.1633251,9.4346144 L64.1633251,12.5233427 L64.1633251,14.5824948 L46.6132706,14.5824948 Z M66.228088,8.40525299 L66.228088,14.5824948 L67.7766602,14.5824948 L67.7766602,16.641647 L60.5777583,16.641647 L67.7766602,18.9742937 L67.7766602,21.1358454 L55.3891589,17.1250927 L42.9999354,21.1412122 L42.9999354,18.9742937 L50.1988373,16.641647 L42.9999354,16.641647 L42.9999354,14.5824948 L44.5485076,14.5824948 L44.5485076,8.40525299 C44.5485076,7.83658179 45.0106684,7.3756769 45.5808891,7.3756769 L65.1957065,7.3756769 C65.7659272,7.3756769 66.228088,7.83658179 66.228088,8.40525299 Z M62.0986698,3 L62.0986698,4.02957609 L67.7765526,4.02957609 L67.7765526,6.08872826 L62.0986698,6.08872826 L62.0986698,6.6035163 L60.0339068,6.6035163 L60.0339068,6.08872826 L50.7426888,6.08872826 L50.7426888,6.6035163 L48.6779259,6.6035163 L48.6779259,6.08872826 L43.0000431,6.08872826 L43.0000431,4.02957609 L48.6779259,4.02957609 L48.6779259,3 L50.7426888,3 L50.7426888,4.02957609 L60.0339068,4.02957609 L60.0339068,3 L62.0986698,3 Z M49.1941597,20.4551359 L49.1941597,22.6179755 L43.0000861,24.6206685 L43.0000861,22.4580435 L49.1941597,20.4551359 Z M54.3559594,21.8890503 L54.3559594,18.4433193 L56.4207223,18.4433193 L56.4207223,22.5616236 L56.4207223,24.6205611 L54.3559594,23.9516372 L54.3559594,23.9482024 L50.7426243,22.7713601 L50.7426243,20.7122079 L54.3559594,21.8890503 Z M61.5544523,20.5024285 L61.5544523,24.6207329 L59.4896894,23.9515943 L59.4896894,19.8332899 L61.5544523,20.5024285 Z M64.6795804,23.9515943 L64.6795804,21.3776541 L66.7443433,22.0467927 L66.7443433,24.6207329 L64.6795804,23.9515943 Z M75.5043025,4.85864674 L75.5043025,7.02663859 L70.873654,5.52628261 L70.873654,3.35807609 L75.5043025,4.85864674 Z M75.0031798,11.236437 L75.0031798,20.8540429 L76.2689019,20.4440158 L76.2689019,22.615013 L70.873654,24.3633174 L70.873654,22.1921054 L72.9384169,21.5231815 L72.9384169,11.236437 L70.873654,11.236437 L70.873654,9.17728478 L72.9384169,9.17728478 L73.9707984,9.17728478 C74.5410191,9.17728478 75.0031798,9.63818967 75.0031798,10.2068609 L75.0031798,11.236437 Z M95.6503787,17.1564565 L87.3915422,17.1564565 L87.3915422,24.6206685 L85.3267793,24.6206685 L85.3267793,19.8826005 L77.0679428,22.5608723 L77.0679428,20.3933098 L85.3267793,17.7171848 L85.3267793,17.1564565 L77.0679428,17.1564565 L77.0679428,15.0973043 L85.3267793,15.0973043 L85.3267793,13.2955462 L78.616515,13.2955462 C78.0462943,13.2955462 77.5841335,12.8346413 77.5841335,12.2659701 L77.5841335,4.02957609 C77.5841335,3.46090489 78.0462943,3 78.616515,3 L85.3267793,3 L87.3915422,3 L94.1018065,3 C94.6720272,3 95.134188,3.46090489 95.134188,4.02957609 L95.134188,12.2659701 C95.134188,12.8346413 94.6720272,13.2955462 94.1018065,13.2955462 L87.3915422,13.2955462 L87.3915422,15.0973043 L95.6503787,15.0973043 L95.6503787,17.1564565 Z M79.6488965,11.236394 L85.3267793,11.236394 L85.3267793,9.17724185 L79.6488965,9.17724185 L79.6488965,11.236394 Z M79.6488965,7.11830435 L85.3267793,7.11830435 L85.3267793,5.05915217 L79.6488965,5.05915217 L79.6488965,7.11830435 Z M87.3915422,7.11830435 L93.0694251,7.11830435 L93.0694251,5.05915217 L87.3915422,5.05915217 L87.3915422,7.11830435 Z M87.3915422,11.236394 L93.0694251,11.236394 L93.0694251,9.17724185 L87.3915422,9.17724185 L87.3915422,11.236394 Z M95.6504003,23.2405084 L89.4563267,21.2296579 L89.4563267,19.0614514 L95.6504003,21.0723019 L95.6504003,23.2405084 Z M116.491289,20.0075193 L114.08448,15.8559405 L111.677886,20.0075193 L111.355213,20.0075193 L109.329196,20.0075193 L109.006523,20.0075193 L106.599929,15.8559405 L104.19312,20.0075193 L101.844646,20.0075193 L105.425477,13.8302774 L101.844646,7.65282092 L104.19312,7.65282092 L106.599929,11.8043997 L109.006523,7.65282092 L109.329196,7.65282092 L111.355213,7.65282092 L111.677886,7.65282092 L114.08448,11.8043997 L116.491289,7.65282092 L118.839763,7.65282092 L115.258932,13.8302774 L118.839763,20.0075193 L116.491289,20.0075193 Z M110.342205,18.2600736 L112.910243,13.8302774 L110.342205,9.40026658 L107.774166,13.8302774 L110.342205,18.2600736 Z M120.943251,3 C121.513472,3 121.975633,3.46090489 121.975633,4.02957609 L121.975633,5.05915217 L121.975633,22.5615163 L121.975633,24.6206685 L121.842818,24.5777337 L117.329916,23.1158043 L117.329916,21.0566522 L119.91087,21.8928071 L119.91087,5.05915217 L100.812243,5.05915217 L100.812243,24.6206685 L98.7474801,24.6206685 L98.7474801,5.05915217 L98.7474801,4.02957609 C98.7474801,3.46090489 99.2096409,3 99.7798616,3 L100.812243,3 L119.91087,3 L120.943251,3 Z" id="中文"></path>
            <path d="M107.52255,31.3622177 C106.668619,31.3622177 105.973978,30.6694649 105.973978,29.8178535 C105.973978,28.9662421 106.668619,28.2734894 107.52255,28.2734894 C108.376482,28.2734894 109.071123,28.9662421 109.071123,29.8178535 C109.071123,30.6694649 108.376482,31.3622177 107.52255,31.3622177 M107.52255,26.7291253 C109.232997,26.7291253 110.619695,28.1120546 110.619695,29.8178535 C110.619695,31.5236524 109.232997,32.9065818 107.52255,32.9065818 C105.812104,32.9065818 104.425406,31.5236524 104.425406,29.8178535 C104.425406,28.1120546 105.812104,26.7291253 107.52255,26.7291253 Z M72.4222907,26.7291253 C74.1327376,26.7291253 75.5194351,28.1120546 75.5194351,29.8178535 C75.5194351,31.5236524 74.1327376,32.9065818 72.4222907,32.9065818 C70.7118439,32.9065818 69.3251463,31.5236524 69.3251463,29.8178535 C69.3251463,28.1120546 70.7118439,26.7291253 72.4222907,26.7291253 Z M72.4222907,31.3622177 C73.2762226,31.3622177 73.9708629,30.6694649 73.9708629,29.8178535 C73.9708629,28.9662421 73.2762226,28.2734894 72.4222907,28.2734894 C71.5683589,28.2734894 70.8737185,28.9662421 70.8737185,29.8178535 C70.8737185,30.6694649 71.5683589,31.3622177 72.4222907,31.3622177 Z M62.6148605,26.7291253 C64.3253074,26.7291253 65.7120049,28.1120546 65.7120049,29.8178535 C65.7120049,31.5236524 64.3253074,32.9065818 62.6148605,32.9065818 C60.9044136,32.9065818 59.5177161,31.5236524 59.5177161,29.8178535 C59.5177161,28.1120546 60.9044136,26.7291253 62.6148605,26.7291253 Z M62.6148605,31.3622177 C63.4687924,31.3622177 64.1634327,30.6694649 64.1634327,29.8178535 C64.1634327,28.9662421 63.4687924,28.2734894 62.6148605,28.2734894 C61.7609286,28.2734894 61.0662883,28.9662421 61.0662883,29.8178535 C61.0662883,30.6694649 61.7609286,31.3622177 62.6148605,31.3622177 Z M121.443556,26.9243712 C121.776777,27.1656647 121.975676,27.5548685 121.975676,27.9655397 L121.975676,32.9064745 L120.427104,32.9064745 L120.427104,28.3197516 L118.878531,28.8216592 L118.878531,32.9064745 L117.329959,32.9064745 L117.329959,28.3197516 L115.781387,28.8216592 L115.781387,32.9064745 L115.781387,32.9131293 L114.232815,32.9131293 L114.232815,32.9064745 L114.232815,27.6995587 L114.232815,26.7356728 L115.720253,27.2176158 L117.189395,26.7416837 C117.58052,26.6143821 118.013191,26.6830777 118.346411,26.9243712 C118.475997,27.0181837 118.584272,27.134537 118.669515,27.265488 L120.28654,26.7416837 C120.67745,26.6143821 121.110335,26.6830777 121.443556,26.9243712 Z M55.5015025,26.9243712 C55.8347232,27.1656647 56.0336223,27.5548685 56.0336223,27.9655397 L56.0336223,32.9064745 L54.4850501,32.9064745 L54.4850501,28.3197516 L52.9364779,28.8216592 L52.9364779,32.9064745 L51.3879057,32.9064745 L51.3879057,28.3197516 L49.8393335,28.8216592 L49.8393335,32.9064745 L49.8393335,32.9131293 L48.2907613,32.9131293 L48.2907613,32.9064745 L48.2907613,27.6995587 L48.2907613,26.7356728 L49.7782,27.2176158 L51.2473417,26.7416837 C51.6382518,26.6143821 52.0711373,26.6830777 52.404358,26.9243712 C52.5339439,27.0181837 52.6422191,27.134537 52.7274616,27.265488 L54.3444861,26.7416837 C54.7353962,26.6143821 55.1682817,26.6830777 55.5015025,26.9243712 Z M97.7151202,28.2735323 C96.8611883,28.2735323 96.166548,28.9662851 96.166548,29.8178965 C96.166548,30.6695079 96.8611883,31.3622606 97.7151202,31.3622606 C98.2289431,31.3622606 98.683785,31.1102334 98.9657741,30.7248938 L100.475169,31.2139209 C99.9637142,32.2175215 98.9212155,32.9066247 97.7151202,32.9066247 C96.0046733,32.9066247 94.6179757,31.5236954 94.6179757,29.8178965 C94.6179757,28.1120976 96.0046733,26.7291682 97.7151202,26.7291682 C98.9212155,26.7291682 99.9637142,27.4182715 100.475169,28.4216573 L98.9657741,28.9108992 C98.683785,28.5255595 98.2289431,28.2735323 97.7151202,28.2735323 Z M82.3982041,28.2735323 C81.5442722,28.2735323 80.8496319,28.9662851 80.8496319,29.8178965 C80.8496319,30.6695079 81.5442722,31.3622606 82.3982041,31.3622606 C82.912027,31.3622606 83.3670842,31.1102334 83.648858,30.7248938 L85.1582531,31.2139209 C84.6467981,32.2175215 83.6042995,32.9066247 82.3982041,32.9066247 C80.6877572,32.9066247 79.3010597,31.5236954 79.3010597,29.8178965 C79.3010597,28.1120976 80.6877572,26.7291682 82.3982041,26.7291682 C83.6042995,26.7291682 84.6467981,27.4182715 85.1582531,28.4216573 L83.648858,28.9108992 C83.3668689,28.5255595 82.912027,28.2735323 82.3982041,28.2735323 Z M90.2305052,31.3621962 C90.6580093,31.3621962 91.0047913,31.7078212 91.0047913,32.1343783 C91.0047913,32.5607207 90.6580093,32.9065603 90.2305052,32.9065603 C89.8030011,32.9065603 89.4562191,32.5607207 89.4562191,32.1343783 C89.4562191,31.7078212 89.8030011,31.3621962 90.2305052,31.3621962 Z M43,32.9130435 L43,26.7358016 L44.5485722,26.7358016 L44.5485722,32.9130435 L43,32.9130435 Z" id="网址"></path>
        </g>
    </g>
</svg>